<svg width="450" height="468" viewBox="0 0 450 468" fill="none" xmlns="http://www.w3.org/2000/svg">
<path d="M262.086 88.2685C274.257 40.1649 241.235 16.4621 223.203 10.6237V6.99332C276.524 15.7725 289.231 68.4022 288.909 93.2848L262.086 88.2685Z" fill="#14FFEC"/>
<circle cx="217.104" cy="7.27354" r="7.27354" fill="#14FFEC"/>
<path d="M323.134 339.528L393.157 359.42L355.267 439.412C348.703 453.269 332.589 459.751 318.257 454.3V454.3C303.988 448.871 296.251 433.42 300.454 418.742L323.134 339.528Z" fill="url(#paint0_linear_2925_2848)"/>
<rect x="59.6289" y="49.8043" width="396.289" height="319.624" rx="130" transform="rotate(10.6875 59.6289 49.8043)" fill="url(#paint1_linear_2925_2848)"/>
<rect x="166.168" y="164.576" width="259.364" height="172.071" rx="86.0356" transform="rotate(10.6875 166.168 164.576)" fill="#0C0D0F"/>
<path d="M48.0781 338.062L100.25 379.226L93.3456 393.413C86.647 407.178 70.5506 413.554 56.2429 408.111V408.111C41.9033 402.656 34.1176 387.14 38.3153 372.383L48.0781 338.062Z" fill="url(#paint2_linear_2925_2848)"/>
<rect x="246.189" y="234.62" width="15.4102" height="49.4566" rx="7.70508" transform="rotate(10.2691 246.189 234.62)" fill="#D9D9D9"/>
<rect x="363.855" y="255.836" width="15.4102" height="49.4566" rx="7.70508" transform="rotate(10.2691 363.855 255.836)" fill="#D9D9D9"/>
<path d="M132.133 310.86L100.303 379.064C114.788 386.955 147.02 391.723 158.343 393.748C128.738 378.725 128.543 331.665 132.133 310.86Z" fill="#0DA598"/>
<defs>
<linearGradient id="paint0_linear_2925_2848" x1="235.405" y1="303.061" x2="181.657" y2="453.503" gradientUnits="userSpaceOnUse">
<stop stop-color="#14FFEC"/>
<stop offset="1" stop-color="#0C998E"/>
</linearGradient>
<linearGradient id="paint1_linear_2925_2848" x1="466.425" y1="221.224" x2="49.8391" y2="207.992" gradientUnits="userSpaceOnUse">
<stop stop-color="#14FFEC"/>
<stop offset="1" stop-color="#0C998E"/>
</linearGradient>
<linearGradient id="paint2_linear_2925_2848" x1="95.3664" y1="388.964" x2="35.4686" y2="354.541" gradientUnits="userSpaceOnUse">
<stop offset="0.534997" stop-color="#0EB2A5"/>
<stop offset="1" stop-color="#0C998E"/>
</linearGradient>
</defs>
</svg>
